<svg width="23" height="23" viewBox="0 0 23 23" fill="none" xmlns="http://www.w3.org/2000/svg">
<path d="M11.6 6.00977C14.6762 6.00977 17.2152 8.54883 17.2152 11.625C17.2152 14.75 14.6762 17.2402 11.6 17.2402C8.475 17.2402 5.98476 14.75 5.98476 11.625C5.98476 8.54883 8.475 6.00977 11.6 6.00977ZM11.6 15.2871C13.602 15.2871 15.2133 13.6758 15.2133 11.625C15.2133 9.62305 13.602 8.01172 11.6 8.01172C9.54922 8.01172 7.93789 9.62305 7.93789 11.625C7.93789 13.6758 9.59804 15.2871 11.6 15.2871ZM18.7289 5.81445C18.7289 6.54688 18.143 7.13281 17.4105 7.13281C16.6781 7.13281 16.0922 6.54688 16.0922 5.81445C16.0922 5.08203 16.6781 4.49609 17.4105 4.49609C18.143 4.49609 18.7289 5.08203 18.7289 5.81445ZM22.4398 7.13281C22.5375 8.93945 22.5375 14.3594 22.4398 16.166C22.3422 17.9238 21.9516 19.4375 20.682 20.7559C19.4125 22.0254 17.85 22.416 16.0922 22.5137C14.2855 22.6113 8.86562 22.6113 7.05898 22.5137C5.30117 22.416 3.7875 22.0254 2.46914 20.7559C1.19961 19.4375 0.808982 17.9238 0.711326 16.166C0.613669 14.3594 0.613669 8.93945 0.711326 7.13281C0.808982 5.375 1.19961 3.8125 2.46914 2.54297C3.7875 1.27344 5.30117 0.882812 7.05898 0.785156C8.86562 0.6875 14.2855 0.6875 16.0922 0.785156C17.85 0.882812 19.4125 1.27344 20.682 2.54297C21.9516 3.8125 22.3422 5.375 22.4398 7.13281ZM20.0961 18.0703C20.682 16.6543 20.5355 13.2363 20.5355 11.625C20.5355 10.0625 20.682 6.64453 20.0961 5.17969C19.7055 4.25195 18.973 3.4707 18.0453 3.12891C16.5805 2.54297 13.1625 2.68945 11.6 2.68945C9.98867 2.68945 6.5707 2.54297 5.15469 3.12891C4.17812 3.51953 3.4457 4.25195 3.05508 5.17969C2.46914 6.64453 2.61562 10.0625 2.61562 11.625C2.61562 13.2363 2.46914 16.6543 3.05508 18.0703C3.4457 19.0469 4.17812 19.7793 5.15469 20.1699C6.5707 20.7559 9.98867 20.6094 11.6 20.6094C13.1625 20.6094 16.5805 20.7559 18.0453 20.1699C18.973 19.7793 19.7543 19.0469 20.0961 18.0703Z" fill="white"/>
</svg>
