<svg width="23" height="23" viewBox="0 0 23 23" fill="none" xmlns="http://www.w3.org/2000/svg">
<path d="M20.975 0.6875C21.8051 0.6875 22.5375 1.41992 22.5375 2.29883V21C22.5375 21.8789 21.8051 22.5625 20.975 22.5625H2.17617C1.34609 22.5625 0.662498 21.8789 0.662498 21V2.29883C0.662498 1.41992 1.34609 0.6875 2.17617 0.6875H20.975ZM7.25429 19.4375V9.03711H4.03164V19.4375H7.25429ZM5.64297 7.57227C6.66836 7.57227 7.49844 6.74219 7.49844 5.7168C7.49844 4.69141 6.66836 3.8125 5.64297 3.8125C4.56875 3.8125 3.73867 4.69141 3.73867 5.7168C3.73867 6.74219 4.56875 7.57227 5.64297 7.57227ZM19.4125 19.4375V13.7246C19.4125 10.9414 18.7777 8.74414 15.5062 8.74414C13.9437 8.74414 12.8695 9.62305 12.4301 10.4531H12.3812V9.03711H9.30508V19.4375H12.5277V14.3105C12.5277 12.9434 12.7719 11.625 14.4809 11.625C16.141 11.625 16.141 13.1875 16.141 14.3594V19.4375H19.4125Z" fill="white"/>
</svg>
