<svg width="57" height="50" viewBox="0 0 57 50" fill="none" xmlns="http://www.w3.org/2000/svg">
<path d="M28.6587 10.004L28.6587 10.0041C28.3167 10.346 27.826 10.4496 27.3943 10.3143C27.7723 9.59568 28.2108 8.91383 28.7033 8.27553C29.1485 8.76834 29.1336 9.52911 28.6587 10.004ZM39.1196 -0.181148C30.0363 0.180323 22.7837 7.65787 22.7837 16.8296C22.7837 26.2319 30.4058 33.854 39.8081 33.854C49.2104 33.854 56.8325 26.2319 56.8325 16.8296C56.8325 7.42724 49.2104 -0.194824 39.8081 -0.194824C39.7313 -0.194824 39.6547 -0.194316 39.5782 -0.193302C39.54 -0.194315 39.5016 -0.194824 39.4632 -0.194824C39.3477 -0.194824 39.2331 -0.190214 39.1196 -0.181148ZM38.2079 4.06821C38.2079 3.42468 38.6924 2.89372 39.3163 2.82128C39.3917 2.81868 39.4671 2.81668 39.5427 2.81528C40.1988 2.85607 40.7186 3.40158 40.7186 4.06821C40.7186 4.76156 40.1566 5.32361 39.4632 5.32361C38.7699 5.32361 38.2079 4.76156 38.2079 4.06821ZM22.9599 33.6263L23.2867 34.0047L22.9599 33.6263L7.78423 46.7325C7.15568 47.2754 7.0862 48.225 7.62907 48.8536C8.17193 49.4822 9.12153 49.5517 9.75007 49.0088L24.9257 35.9025C25.5544 35.3597 25.6239 34.41 25.081 33.7814C24.5381 33.1529 23.5885 33.0834 22.9599 33.6263ZM46.4853 13.0357C46.4853 12.3424 47.0474 11.7803 47.7407 11.7803C48.4341 11.7803 48.9961 12.3424 48.9961 13.0357C48.9961 13.7291 48.4341 14.2912 47.7407 14.2912C47.0474 14.2912 46.4853 13.7291 46.4853 13.0357ZM47.7407 8.7727C45.3863 8.7727 43.4777 10.6813 43.4777 13.0357C43.4777 15.3901 45.3863 17.2988 47.7407 17.2988C50.0952 17.2988 52.0037 15.3901 52.0037 13.0357C52.0037 10.6813 50.0952 8.7727 47.7407 8.7727ZM43.7264 24.7624C43.7264 24.069 44.2884 23.507 44.9818 23.507C45.6751 23.507 46.2372 24.069 46.2372 24.7624C46.2372 25.4557 45.6751 26.0177 44.9818 26.0177C44.2884 26.0177 43.7264 25.4557 43.7264 24.7624ZM44.9818 20.4994C42.6274 20.4994 40.7187 22.4079 40.7187 24.7624C40.7187 27.1168 42.6274 29.0254 44.9818 29.0254C47.3362 29.0254 49.2448 27.1168 49.2448 24.7624C49.2448 22.4079 47.3362 20.4994 44.9818 20.4994ZM35.4483 17.1748C35.4483 16.4815 36.0103 15.9194 36.7037 15.9194C37.397 15.9194 37.9591 16.4814 37.9591 17.1748C37.9591 17.8681 37.397 18.4302 36.7037 18.4302C36.0103 18.4302 35.4483 17.8681 35.4483 17.1748ZM36.7037 12.9117C34.3493 12.9117 32.4406 14.8204 32.4406 17.1748C32.4406 19.5292 34.3493 21.4378 36.7037 21.4378C39.0581 21.4378 40.9667 19.5292 40.9667 17.1748C40.9667 14.8204 39.0581 12.9117 36.7037 12.9117ZM1.52384 11.5317C0.693328 11.5317 0.0200195 12.2049 0.0200195 13.0355C0.0200195 13.866 0.693287 14.5393 1.52384 14.5393H15.3199C16.1505 14.5393 16.8237 13.866 16.8237 13.0355C16.8237 12.2049 16.1505 11.5317 15.3199 11.5317H1.52384ZM17.8183 27.0862C18.5304 26.6589 18.7614 25.7352 18.3341 25.023C17.9068 24.3108 16.983 24.0798 16.2708 24.5072C16.2708 24.5072 16.2708 24.5072 16.2708 24.5072L7.64829 29.6807C6.93613 30.108 6.70519 31.0318 7.13249 31.744C7.55978 32.4561 8.48354 32.687 9.1957 32.2598L17.8183 27.0862Z" fill="#329BEC" stroke="#001429"/>
</svg>
