<svg width="26" height="21" viewBox="0 0 26 21" fill="none" xmlns="http://www.w3.org/2000/svg">
<path d="M22.5121 5.54688C22.5121 5.79102 22.5121 5.98633 22.5121 6.23047C22.5121 13.0176 17.3852 20.7812 7.96133 20.7812C5.03164 20.7812 2.34609 19.9512 0.1 18.4863C0.490625 18.5352 0.88125 18.584 1.3207 18.584C3.71328 18.584 5.91055 17.7539 7.66836 16.3867C5.42227 16.3379 3.51797 14.873 2.8832 12.8223C3.225 12.8711 3.51797 12.9199 3.85977 12.9199C4.29922 12.9199 4.7875 12.8223 5.17813 12.7246C2.83438 12.2363 1.07656 10.1855 1.07656 7.69531V7.64648C1.76016 8.03711 2.59023 8.23242 3.42031 8.28125C2.0043 7.35352 1.12539 5.79102 1.12539 4.0332C1.12539 3.05664 1.36953 2.17773 1.80898 1.44531C4.34805 4.52148 8.15664 6.57227 12.4047 6.81641C12.307 6.42578 12.2582 6.03516 12.2582 5.64453C12.2582 2.8125 14.5531 0.517578 17.3852 0.517578C18.85 0.517578 20.1684 1.10352 21.1449 2.12891C22.268 1.88477 23.391 1.44531 24.3676 0.859375C23.977 2.08008 23.1957 3.05664 22.1215 3.69141C23.1469 3.59375 24.1723 3.30078 25.0512 2.91016C24.3676 3.93555 23.4887 4.81445 22.5121 5.54688Z" fill="white"/>
</svg>
